<mxfile host="app.diagrams.net" modified="2020-03-15T17:53:25.791Z" agent="Mozilla/5.0 (Windows NT 10.0; Win64; x64) AppleWebKit/537.36 (KHTML, like Gecko) Chrome/80.0.3987.132 Safari/537.36" etag="su67THJe-QFUCKAxBsnW" version="12.8.5" type="github">
  <diagram id="QOBkVK9os_g-NTVw1f61" name="Page-1">
    <mxGraphModel dx="1422" dy="762" grid="1" gridSize="10" guides="1" tooltips="1" connect="1" arrows="1" fold="1" page="1" pageScale="1" pageWidth="827" pageHeight="1169" math="0" shadow="0">
      <root>
        <mxCell id="0" />
        <mxCell id="1" parent="0" />
        <mxCell id="nIdmVU4Ml0ts0ksLowSz-1" value="Airline" style="whiteSpace=wrap;html=1;align=center;direction=west;" parent="1" vertex="1">
          <mxGeometry x="560" y="670" width="100" height="40" as="geometry" />
        </mxCell>
        <mxCell id="nIdmVU4Ml0ts0ksLowSz-2" value="Runway" style="whiteSpace=wrap;html=1;align=center;" parent="1" vertex="1">
          <mxGeometry x="300" y="10" width="100" height="40" as="geometry" />
        </mxCell>
        <mxCell id="nIdmVU4Ml0ts0ksLowSz-3" value="Navaid" style="whiteSpace=wrap;html=1;align=center;" parent="1" vertex="1">
          <mxGeometry x="40" y="430" width="100" height="40" as="geometry" />
        </mxCell>
        <mxCell id="nIdmVU4Ml0ts0ksLowSz-4" value="Communication device" style="whiteSpace=wrap;html=1;align=center;" parent="1" vertex="1">
          <mxGeometry x="70" y="10" width="100" height="40" as="geometry" />
        </mxCell>
        <mxCell id="nIdmVU4Ml0ts0ksLowSz-5" value="Region" style="whiteSpace=wrap;html=1;align=center;" parent="1" vertex="1">
          <mxGeometry x="240" y="420" width="100" height="40" as="geometry" />
        </mxCell>
        <mxCell id="nIdmVU4Ml0ts0ksLowSz-6" value="Airport" style="whiteSpace=wrap;html=1;align=center;" parent="1" vertex="1">
          <mxGeometry x="240" y="210" width="100" height="40" as="geometry" />
        </mxCell>
        <mxCell id="nIdmVU4Ml0ts0ksLowSz-8" value="Continent" style="whiteSpace=wrap;html=1;align=center;" parent="1" vertex="1">
          <mxGeometry x="240" y="790" width="100" height="40" as="geometry" />
        </mxCell>
        <mxCell id="nIdmVU4Ml0ts0ksLowSz-9" value="Plane" style="whiteSpace=wrap;html=1;align=center;" parent="1" vertex="1">
          <mxGeometry x="560" y="570" width="100" height="40" as="geometry" />
        </mxCell>
        <mxCell id="nIdmVU4Ml0ts0ksLowSz-10" value="Route" style="whiteSpace=wrap;html=1;align=center;" parent="1" vertex="1">
          <mxGeometry x="560" y="360" width="100" height="40" as="geometry" />
        </mxCell>
        <mxCell id="nIdmVU4Ml0ts0ksLowSz-11" value="is part of a" style="shape=rhombus;perimeter=rhombusPerimeter;whiteSpace=wrap;html=1;align=center;" parent="1" vertex="1">
          <mxGeometry x="230" y="680" width="120" height="60" as="geometry" />
        </mxCell>
        <mxCell id="nIdmVU4Ml0ts0ksLowSz-20" value="" style="endArrow=none;html=1;rounded=0;shadow=0;entryX=0.5;entryY=1;entryDx=0;entryDy=0;" parent="1" source="nIdmVU4Ml0ts0ksLowSz-8" target="nIdmVU4Ml0ts0ksLowSz-11" edge="1">
          <mxGeometry relative="1" as="geometry">
            <mxPoint x="450" y="760" as="sourcePoint" />
            <mxPoint x="490" y="590" as="targetPoint" />
          </mxGeometry>
        </mxCell>
        <mxCell id="nIdmVU4Ml0ts0ksLowSz-21" value="1" style="resizable=0;html=1;align=right;verticalAlign=bottom;" parent="nIdmVU4Ml0ts0ksLowSz-20" connectable="0" vertex="1">
          <mxGeometry x="1" relative="1" as="geometry">
            <mxPoint x="-10" y="20" as="offset" />
          </mxGeometry>
        </mxCell>
        <mxCell id="nIdmVU4Ml0ts0ksLowSz-22" value="" style="endArrow=none;html=1;rounded=0;dashed=1;dashPattern=1 2;shadow=0;exitX=0.5;exitY=1;exitDx=0;exitDy=0;entryX=0.5;entryY=0;entryDx=0;entryDy=0;" parent="1" source="nIdmVU4Ml0ts0ksLowSz-24" target="nIdmVU4Ml0ts0ksLowSz-11" edge="1">
          <mxGeometry relative="1" as="geometry">
            <mxPoint x="290" y="640" as="sourcePoint" />
            <mxPoint x="490" y="590" as="targetPoint" />
          </mxGeometry>
        </mxCell>
        <mxCell id="nIdmVU4Ml0ts0ksLowSz-23" value="N" style="resizable=0;html=1;align=right;verticalAlign=bottom;" parent="nIdmVU4Ml0ts0ksLowSz-22" connectable="0" vertex="1">
          <mxGeometry x="1" relative="1" as="geometry">
            <mxPoint x="-10" as="offset" />
          </mxGeometry>
        </mxCell>
        <mxCell id="nIdmVU4Ml0ts0ksLowSz-24" value="Country" style="whiteSpace=wrap;html=1;align=center;" parent="1" vertex="1">
          <mxGeometry x="240" y="600" width="100" height="40" as="geometry" />
        </mxCell>
        <mxCell id="nIdmVU4Ml0ts0ksLowSz-25" value="is part of a" style="shape=rhombus;perimeter=rhombusPerimeter;whiteSpace=wrap;html=1;align=center;" parent="1" vertex="1">
          <mxGeometry x="230" y="500" width="120" height="60" as="geometry" />
        </mxCell>
        <mxCell id="nIdmVU4Ml0ts0ksLowSz-26" value="" style="endArrow=none;html=1;rounded=0;shadow=0;exitX=0.5;exitY=0;exitDx=0;exitDy=0;entryX=0.5;entryY=1;entryDx=0;entryDy=0;" parent="1" source="nIdmVU4Ml0ts0ksLowSz-24" target="nIdmVU4Ml0ts0ksLowSz-25" edge="1">
          <mxGeometry relative="1" as="geometry">
            <mxPoint x="330" y="590" as="sourcePoint" />
            <mxPoint x="490" y="590" as="targetPoint" />
          </mxGeometry>
        </mxCell>
        <mxCell id="nIdmVU4Ml0ts0ksLowSz-27" value="1" style="resizable=0;html=1;align=right;verticalAlign=bottom;" parent="nIdmVU4Ml0ts0ksLowSz-26" connectable="0" vertex="1">
          <mxGeometry x="1" relative="1" as="geometry">
            <mxPoint x="-10" y="20" as="offset" />
          </mxGeometry>
        </mxCell>
        <mxCell id="nIdmVU4Ml0ts0ksLowSz-30" value="is located in a" style="shape=rhombus;perimeter=rhombusPerimeter;whiteSpace=wrap;html=1;align=center;" parent="1" vertex="1">
          <mxGeometry x="230" y="290" width="120" height="60" as="geometry" />
        </mxCell>
        <mxCell id="nIdmVU4Ml0ts0ksLowSz-31" value="" style="endArrow=none;html=1;rounded=0;shadow=0;entryX=0.5;entryY=1;entryDx=0;entryDy=0;exitX=0.5;exitY=0;exitDx=0;exitDy=0;" parent="1" source="nIdmVU4Ml0ts0ksLowSz-5" target="nIdmVU4Ml0ts0ksLowSz-30" edge="1">
          <mxGeometry relative="1" as="geometry">
            <mxPoint x="330" y="390" as="sourcePoint" />
            <mxPoint x="490" y="390" as="targetPoint" />
          </mxGeometry>
        </mxCell>
        <mxCell id="nIdmVU4Ml0ts0ksLowSz-32" value="1" style="resizable=0;html=1;align=right;verticalAlign=bottom;" parent="nIdmVU4Ml0ts0ksLowSz-31" connectable="0" vertex="1">
          <mxGeometry x="1" relative="1" as="geometry">
            <mxPoint x="-10" y="20" as="offset" />
          </mxGeometry>
        </mxCell>
        <mxCell id="nIdmVU4Ml0ts0ksLowSz-34" value="" style="endArrow=none;html=1;rounded=0;dashed=1;dashPattern=1 2;shadow=0;entryX=0.5;entryY=0;entryDx=0;entryDy=0;exitX=0.5;exitY=1;exitDx=0;exitDy=0;" parent="1" source="nIdmVU4Ml0ts0ksLowSz-6" target="nIdmVU4Ml0ts0ksLowSz-30" edge="1">
          <mxGeometry relative="1" as="geometry">
            <mxPoint x="330" y="390" as="sourcePoint" />
            <mxPoint x="490" y="390" as="targetPoint" />
          </mxGeometry>
        </mxCell>
        <mxCell id="nIdmVU4Ml0ts0ksLowSz-35" value="N" style="resizable=0;html=1;align=right;verticalAlign=bottom;" parent="nIdmVU4Ml0ts0ksLowSz-34" connectable="0" vertex="1">
          <mxGeometry x="1" relative="1" as="geometry">
            <mxPoint x="-10" as="offset" />
          </mxGeometry>
        </mxCell>
        <mxCell id="nIdmVU4Ml0ts0ksLowSz-36" value="" style="endArrow=none;html=1;rounded=0;dashed=1;dashPattern=1 2;shadow=0;exitX=0.5;exitY=1;exitDx=0;exitDy=0;entryX=0.5;entryY=0;entryDx=0;entryDy=0;" parent="1" source="nIdmVU4Ml0ts0ksLowSz-5" target="nIdmVU4Ml0ts0ksLowSz-25" edge="1">
          <mxGeometry relative="1" as="geometry">
            <mxPoint x="330" y="390" as="sourcePoint" />
            <mxPoint x="490" y="390" as="targetPoint" />
          </mxGeometry>
        </mxCell>
        <mxCell id="nIdmVU4Ml0ts0ksLowSz-37" value="N" style="resizable=0;html=1;align=right;verticalAlign=bottom;" parent="nIdmVU4Ml0ts0ksLowSz-36" connectable="0" vertex="1">
          <mxGeometry x="1" relative="1" as="geometry">
            <mxPoint x="-10" as="offset" />
          </mxGeometry>
        </mxCell>
        <mxCell id="W7deLKcDwb9GxQglXqNE-1" value="is located in a" style="shape=rhombus;perimeter=rhombusPerimeter;whiteSpace=wrap;html=1;align=center;" vertex="1" parent="1">
          <mxGeometry x="30" y="590" width="120" height="60" as="geometry" />
        </mxCell>
        <mxCell id="W7deLKcDwb9GxQglXqNE-2" value="" style="endArrow=none;html=1;rounded=0;shadow=0;entryX=1;entryY=0.5;entryDx=0;entryDy=0;exitX=0;exitY=0.5;exitDx=0;exitDy=0;" edge="1" parent="1" target="W7deLKcDwb9GxQglXqNE-1" source="nIdmVU4Ml0ts0ksLowSz-24">
          <mxGeometry relative="1" as="geometry">
            <mxPoint x="450" y="640" as="sourcePoint" />
            <mxPoint x="650" y="610" as="targetPoint" />
          </mxGeometry>
        </mxCell>
        <mxCell id="W7deLKcDwb9GxQglXqNE-3" value="1" style="resizable=0;html=1;align=right;verticalAlign=bottom;" connectable="0" vertex="1" parent="W7deLKcDwb9GxQglXqNE-2">
          <mxGeometry x="1" relative="1" as="geometry">
            <mxPoint x="10" as="offset" />
          </mxGeometry>
        </mxCell>
        <mxCell id="W7deLKcDwb9GxQglXqNE-4" value="" style="endArrow=none;html=1;rounded=0;dashed=1;dashPattern=1 2;shadow=0;entryX=0.5;entryY=0;entryDx=0;entryDy=0;exitX=0.5;exitY=1;exitDx=0;exitDy=0;" edge="1" parent="1" target="W7deLKcDwb9GxQglXqNE-1" source="nIdmVU4Ml0ts0ksLowSz-3">
          <mxGeometry relative="1" as="geometry">
            <mxPoint x="450" y="470" as="sourcePoint" />
            <mxPoint x="650" y="610" as="targetPoint" />
          </mxGeometry>
        </mxCell>
        <mxCell id="W7deLKcDwb9GxQglXqNE-5" value="N" style="resizable=0;html=1;align=right;verticalAlign=bottom;" connectable="0" vertex="1" parent="W7deLKcDwb9GxQglXqNE-4">
          <mxGeometry x="1" relative="1" as="geometry">
            <mxPoint x="-10" y="-5" as="offset" />
          </mxGeometry>
        </mxCell>
        <mxCell id="W7deLKcDwb9GxQglXqNE-6" value="is located on an" style="shape=rhombus;perimeter=rhombusPerimeter;whiteSpace=wrap;html=1;align=center;" vertex="1" parent="1">
          <mxGeometry x="30" y="200" width="120" height="60" as="geometry" />
        </mxCell>
        <mxCell id="W7deLKcDwb9GxQglXqNE-11" value="" style="endArrow=none;html=1;rounded=0;dashed=1;dashPattern=1 2;shadow=0;exitX=0.5;exitY=0;exitDx=0;exitDy=0;entryX=0.5;entryY=1;entryDx=0;entryDy=0;" edge="1" parent="1" source="nIdmVU4Ml0ts0ksLowSz-3" target="W7deLKcDwb9GxQglXqNE-6">
          <mxGeometry relative="1" as="geometry">
            <mxPoint x="330" y="390" as="sourcePoint" />
            <mxPoint x="490" y="390" as="targetPoint" />
            <Array as="points" />
          </mxGeometry>
        </mxCell>
        <mxCell id="W7deLKcDwb9GxQglXqNE-12" value="N" style="resizable=0;html=1;align=right;verticalAlign=bottom;" connectable="0" vertex="1" parent="W7deLKcDwb9GxQglXqNE-11">
          <mxGeometry x="1" relative="1" as="geometry">
            <mxPoint x="-10" y="20" as="offset" />
          </mxGeometry>
        </mxCell>
        <mxCell id="W7deLKcDwb9GxQglXqNE-13" value="" style="endArrow=none;html=1;rounded=0;dashed=1;dashPattern=1 2;shadow=0;entryX=1;entryY=0.5;entryDx=0;entryDy=0;exitX=0;exitY=0.5;exitDx=0;exitDy=0;" edge="1" parent="1" source="nIdmVU4Ml0ts0ksLowSz-6" target="W7deLKcDwb9GxQglXqNE-6">
          <mxGeometry relative="1" as="geometry">
            <mxPoint x="330" y="390" as="sourcePoint" />
            <mxPoint x="490" y="390" as="targetPoint" />
          </mxGeometry>
        </mxCell>
        <mxCell id="W7deLKcDwb9GxQglXqNE-14" value="1" style="resizable=0;html=1;align=right;verticalAlign=bottom;" connectable="0" vertex="1" parent="W7deLKcDwb9GxQglXqNE-13">
          <mxGeometry x="1" relative="1" as="geometry">
            <mxPoint x="10" y="-10" as="offset" />
          </mxGeometry>
        </mxCell>
        <mxCell id="W7deLKcDwb9GxQglXqNE-15" value="is departing from" style="shape=rhombus;perimeter=rhombusPerimeter;whiteSpace=wrap;html=1;align=center;" vertex="1" parent="1">
          <mxGeometry x="390" y="350" width="120" height="60" as="geometry" />
        </mxCell>
        <mxCell id="W7deLKcDwb9GxQglXqNE-16" value="is arriving to" style="shape=rhombus;perimeter=rhombusPerimeter;whiteSpace=wrap;html=1;align=center;" vertex="1" parent="1">
          <mxGeometry x="550" y="190" width="120" height="60" as="geometry" />
        </mxCell>
        <mxCell id="W7deLKcDwb9GxQglXqNE-17" value="" style="endArrow=none;html=1;rounded=0;shadow=0;exitX=1;exitY=0.5;exitDx=0;exitDy=0;entryX=0;entryY=0.5;entryDx=0;entryDy=0;" edge="1" parent="1" source="nIdmVU4Ml0ts0ksLowSz-6" target="W7deLKcDwb9GxQglXqNE-15">
          <mxGeometry relative="1" as="geometry">
            <mxPoint x="330" y="290" as="sourcePoint" />
            <mxPoint x="490" y="290" as="targetPoint" />
            <Array as="points">
              <mxPoint x="390" y="230" />
            </Array>
          </mxGeometry>
        </mxCell>
        <mxCell id="W7deLKcDwb9GxQglXqNE-18" value="1" style="resizable=0;html=1;align=right;verticalAlign=bottom;" connectable="0" vertex="1" parent="W7deLKcDwb9GxQglXqNE-17">
          <mxGeometry x="1" relative="1" as="geometry">
            <mxPoint x="-10" y="-10" as="offset" />
          </mxGeometry>
        </mxCell>
        <mxCell id="W7deLKcDwb9GxQglXqNE-19" value="" style="endArrow=none;html=1;rounded=0;dashed=1;dashPattern=1 2;shadow=0;entryX=1;entryY=0.5;entryDx=0;entryDy=0;exitX=0;exitY=0.5;exitDx=0;exitDy=0;" edge="1" parent="1" source="nIdmVU4Ml0ts0ksLowSz-10" target="W7deLKcDwb9GxQglXqNE-15">
          <mxGeometry relative="1" as="geometry">
            <mxPoint x="330" y="290" as="sourcePoint" />
            <mxPoint x="490" y="290" as="targetPoint" />
          </mxGeometry>
        </mxCell>
        <mxCell id="W7deLKcDwb9GxQglXqNE-20" value="N" style="resizable=0;html=1;align=right;verticalAlign=bottom;" connectable="0" vertex="1" parent="W7deLKcDwb9GxQglXqNE-19">
          <mxGeometry x="1" relative="1" as="geometry">
            <mxPoint x="10" y="-10" as="offset" />
          </mxGeometry>
        </mxCell>
        <mxCell id="W7deLKcDwb9GxQglXqNE-21" value="" style="endArrow=none;html=1;rounded=0;shadow=0;entryX=0;entryY=0.5;entryDx=0;entryDy=0;exitX=1;exitY=0.25;exitDx=0;exitDy=0;" edge="1" parent="1" source="nIdmVU4Ml0ts0ksLowSz-6" target="W7deLKcDwb9GxQglXqNE-16">
          <mxGeometry relative="1" as="geometry">
            <mxPoint x="330" y="290" as="sourcePoint" />
            <mxPoint x="490" y="290" as="targetPoint" />
          </mxGeometry>
        </mxCell>
        <mxCell id="W7deLKcDwb9GxQglXqNE-22" value="1" style="resizable=0;html=1;align=right;verticalAlign=bottom;" connectable="0" vertex="1" parent="W7deLKcDwb9GxQglXqNE-21">
          <mxGeometry x="1" relative="1" as="geometry">
            <mxPoint x="-10" y="-10" as="offset" />
          </mxGeometry>
        </mxCell>
        <mxCell id="W7deLKcDwb9GxQglXqNE-23" value="" style="endArrow=none;html=1;rounded=0;dashed=1;dashPattern=1 2;shadow=0;entryX=0.5;entryY=1;entryDx=0;entryDy=0;exitX=0.5;exitY=0;exitDx=0;exitDy=0;" edge="1" parent="1" source="nIdmVU4Ml0ts0ksLowSz-10" target="W7deLKcDwb9GxQglXqNE-16">
          <mxGeometry relative="1" as="geometry">
            <mxPoint x="330" y="290" as="sourcePoint" />
            <mxPoint x="490" y="290" as="targetPoint" />
          </mxGeometry>
        </mxCell>
        <mxCell id="W7deLKcDwb9GxQglXqNE-24" value="N" style="resizable=0;html=1;align=right;verticalAlign=bottom;" connectable="0" vertex="1" parent="W7deLKcDwb9GxQglXqNE-23">
          <mxGeometry x="1" relative="1" as="geometry">
            <mxPoint x="-10" y="30" as="offset" />
          </mxGeometry>
        </mxCell>
        <mxCell id="W7deLKcDwb9GxQglXqNE-25" value="is flight with" style="shape=rhombus;perimeter=rhombusPerimeter;whiteSpace=wrap;html=1;align=center;" vertex="1" parent="1">
          <mxGeometry x="550" y="440" width="120" height="60" as="geometry" />
        </mxCell>
        <mxCell id="W7deLKcDwb9GxQglXqNE-26" value="" style="endArrow=none;html=1;rounded=0;dashed=1;dashPattern=1 2;shadow=0;entryX=0.5;entryY=0;entryDx=0;entryDy=0;exitX=0.5;exitY=1;exitDx=0;exitDy=0;" edge="1" parent="1" source="nIdmVU4Ml0ts0ksLowSz-10" target="W7deLKcDwb9GxQglXqNE-25">
          <mxGeometry relative="1" as="geometry">
            <mxPoint x="330" y="290" as="sourcePoint" />
            <mxPoint x="490" y="290" as="targetPoint" />
          </mxGeometry>
        </mxCell>
        <mxCell id="W7deLKcDwb9GxQglXqNE-27" value="N" style="resizable=0;html=1;align=right;verticalAlign=bottom;" connectable="0" vertex="1" parent="W7deLKcDwb9GxQglXqNE-26">
          <mxGeometry x="1" relative="1" as="geometry">
            <mxPoint x="-10" as="offset" />
          </mxGeometry>
        </mxCell>
        <mxCell id="W7deLKcDwb9GxQglXqNE-34" value="" style="endArrow=none;html=1;rounded=0;dashed=1;dashPattern=1 2;shadow=0;strokeColor=#000000;exitX=0.5;exitY=1;exitDx=0;exitDy=0;entryX=0.5;entryY=0;entryDx=0;entryDy=0;" edge="1" parent="1" source="W7deLKcDwb9GxQglXqNE-25" target="nIdmVU4Ml0ts0ksLowSz-9">
          <mxGeometry relative="1" as="geometry">
            <mxPoint x="330" y="490" as="sourcePoint" />
            <mxPoint x="490" y="490" as="targetPoint" />
          </mxGeometry>
        </mxCell>
        <mxCell id="W7deLKcDwb9GxQglXqNE-35" value="M" style="resizable=0;html=1;align=left;verticalAlign=bottom;" connectable="0" vertex="1" parent="W7deLKcDwb9GxQglXqNE-34">
          <mxGeometry x="-1" relative="1" as="geometry">
            <mxPoint x="-20" y="20" as="offset" />
          </mxGeometry>
        </mxCell>
        <mxCell id="W7deLKcDwb9GxQglXqNE-37" value="is&amp;nbsp;communicating" style="shape=rhombus;perimeter=rhombusPerimeter;whiteSpace=wrap;html=1;align=center;" vertex="1" parent="1">
          <mxGeometry x="60" y="80" width="120" height="60" as="geometry" />
        </mxCell>
        <mxCell id="W7deLKcDwb9GxQglXqNE-38" value="" style="endArrow=none;html=1;rounded=0;dashed=1;dashPattern=1 2;shadow=0;strokeColor=#000000;entryX=0.5;entryY=0;entryDx=0;entryDy=0;exitX=0.5;exitY=1;exitDx=0;exitDy=0;" edge="1" parent="1" source="nIdmVU4Ml0ts0ksLowSz-4" target="W7deLKcDwb9GxQglXqNE-37">
          <mxGeometry relative="1" as="geometry">
            <mxPoint x="370" y="90" as="sourcePoint" />
            <mxPoint x="310" y="80" as="targetPoint" />
          </mxGeometry>
        </mxCell>
        <mxCell id="W7deLKcDwb9GxQglXqNE-39" value="N" style="resizable=0;html=1;align=right;verticalAlign=bottom;" connectable="0" vertex="1" parent="W7deLKcDwb9GxQglXqNE-38">
          <mxGeometry x="1" relative="1" as="geometry">
            <mxPoint x="-10" as="offset" />
          </mxGeometry>
        </mxCell>
        <mxCell id="W7deLKcDwb9GxQglXqNE-40" value="" style="endArrow=none;html=1;rounded=0;dashed=1;dashPattern=1 2;shadow=0;strokeColor=#000000;entryX=0.5;entryY=1;entryDx=0;entryDy=0;exitX=0.25;exitY=0;exitDx=0;exitDy=0;" edge="1" parent="1" source="nIdmVU4Ml0ts0ksLowSz-6" target="W7deLKcDwb9GxQglXqNE-37">
          <mxGeometry relative="1" as="geometry">
            <mxPoint x="100" y="80" as="sourcePoint" />
            <mxPoint x="140" y="130" as="targetPoint" />
            <Array as="points">
              <mxPoint x="265" y="140" />
            </Array>
          </mxGeometry>
        </mxCell>
        <mxCell id="W7deLKcDwb9GxQglXqNE-41" value="1" style="resizable=0;html=1;align=right;verticalAlign=bottom;" connectable="0" vertex="1" parent="W7deLKcDwb9GxQglXqNE-40">
          <mxGeometry x="1" relative="1" as="geometry">
            <mxPoint x="-10" y="20" as="offset" />
          </mxGeometry>
        </mxCell>
        <mxCell id="W7deLKcDwb9GxQglXqNE-42" value="has" style="shape=rhombus;perimeter=rhombusPerimeter;whiteSpace=wrap;html=1;align=center;" vertex="1" parent="1">
          <mxGeometry x="290" y="80" width="120" height="60" as="geometry" />
        </mxCell>
        <mxCell id="W7deLKcDwb9GxQglXqNE-43" value="" style="endArrow=none;html=1;rounded=0;dashed=1;dashPattern=1 2;shadow=0;strokeColor=#000000;entryX=0.5;entryY=0;entryDx=0;entryDy=0;exitX=0.5;exitY=1;exitDx=0;exitDy=0;" edge="1" parent="1" source="nIdmVU4Ml0ts0ksLowSz-2" target="W7deLKcDwb9GxQglXqNE-42">
          <mxGeometry relative="1" as="geometry">
            <mxPoint x="330" y="290" as="sourcePoint" />
            <mxPoint x="490" y="290" as="targetPoint" />
          </mxGeometry>
        </mxCell>
        <mxCell id="W7deLKcDwb9GxQglXqNE-44" value="N" style="resizable=0;html=1;align=right;verticalAlign=bottom;" connectable="0" vertex="1" parent="W7deLKcDwb9GxQglXqNE-43">
          <mxGeometry x="1" relative="1" as="geometry">
            <mxPoint x="-10" as="offset" />
          </mxGeometry>
        </mxCell>
        <mxCell id="W7deLKcDwb9GxQglXqNE-45" value="" style="endArrow=none;html=1;rounded=0;shadow=0;strokeColor=#000000;entryX=0.5;entryY=1;entryDx=0;entryDy=0;exitX=0.75;exitY=0;exitDx=0;exitDy=0;" edge="1" parent="1" source="nIdmVU4Ml0ts0ksLowSz-6" target="W7deLKcDwb9GxQglXqNE-42">
          <mxGeometry relative="1" as="geometry">
            <mxPoint x="330" y="290" as="sourcePoint" />
            <mxPoint x="490" y="290" as="targetPoint" />
            <Array as="points">
              <mxPoint x="315" y="180" />
              <mxPoint x="350" y="180" />
            </Array>
          </mxGeometry>
        </mxCell>
        <mxCell id="W7deLKcDwb9GxQglXqNE-46" value="1" style="resizable=0;html=1;align=right;verticalAlign=bottom;" connectable="0" vertex="1" parent="W7deLKcDwb9GxQglXqNE-45">
          <mxGeometry x="1" relative="1" as="geometry">
            <mxPoint x="-10" y="20" as="offset" />
          </mxGeometry>
        </mxCell>
        <mxCell id="W7deLKcDwb9GxQglXqNE-47" value="is located in" style="shape=rhombus;perimeter=rhombusPerimeter;whiteSpace=wrap;html=1;align=center;" vertex="1" parent="1">
          <mxGeometry x="390" y="660" width="120" height="60" as="geometry" />
        </mxCell>
        <mxCell id="W7deLKcDwb9GxQglXqNE-48" value="" style="endArrow=none;html=1;rounded=0;shadow=0;strokeColor=#000000;exitX=1;exitY=0.5;exitDx=0;exitDy=0;entryX=0;entryY=0.5;entryDx=0;entryDy=0;" edge="1" parent="1" source="nIdmVU4Ml0ts0ksLowSz-24" target="W7deLKcDwb9GxQglXqNE-47">
          <mxGeometry relative="1" as="geometry">
            <mxPoint x="330" y="490" as="sourcePoint" />
            <mxPoint x="490" y="490" as="targetPoint" />
            <Array as="points">
              <mxPoint x="390" y="620" />
            </Array>
          </mxGeometry>
        </mxCell>
        <mxCell id="W7deLKcDwb9GxQglXqNE-49" value="1" style="resizable=0;html=1;align=right;verticalAlign=bottom;" connectable="0" vertex="1" parent="W7deLKcDwb9GxQglXqNE-48">
          <mxGeometry x="1" relative="1" as="geometry">
            <mxPoint x="-10" y="-10" as="offset" />
          </mxGeometry>
        </mxCell>
        <mxCell id="W7deLKcDwb9GxQglXqNE-50" value="" style="endArrow=none;html=1;rounded=0;dashed=1;dashPattern=1 2;shadow=0;strokeColor=#000000;exitX=1;exitY=0.5;exitDx=0;exitDy=0;entryX=1;entryY=0.5;entryDx=0;entryDy=0;" edge="1" parent="1" source="nIdmVU4Ml0ts0ksLowSz-1" target="W7deLKcDwb9GxQglXqNE-47">
          <mxGeometry relative="1" as="geometry">
            <mxPoint x="330" y="490" as="sourcePoint" />
            <mxPoint x="490" y="490" as="targetPoint" />
          </mxGeometry>
        </mxCell>
        <mxCell id="W7deLKcDwb9GxQglXqNE-51" value="N" style="resizable=0;html=1;align=right;verticalAlign=bottom;" connectable="0" vertex="1" parent="W7deLKcDwb9GxQglXqNE-50">
          <mxGeometry x="1" relative="1" as="geometry">
            <mxPoint x="10" y="-10" as="offset" />
          </mxGeometry>
        </mxCell>
        <mxCell id="W7deLKcDwb9GxQglXqNE-52" value="is served by" style="shape=rhombus;perimeter=rhombusPerimeter;whiteSpace=wrap;html=1;align=center;" vertex="1" parent="1">
          <mxGeometry x="690" y="440" width="120" height="60" as="geometry" />
        </mxCell>
        <mxCell id="W7deLKcDwb9GxQglXqNE-55" value="" style="endArrow=none;html=1;rounded=0;dashed=1;dashPattern=1 2;shadow=0;strokeColor=#000000;entryX=0.5;entryY=0;entryDx=0;entryDy=0;exitX=1;exitY=0.5;exitDx=0;exitDy=0;" edge="1" parent="1" source="nIdmVU4Ml0ts0ksLowSz-10" target="W7deLKcDwb9GxQglXqNE-52">
          <mxGeometry relative="1" as="geometry">
            <mxPoint x="330" y="490" as="sourcePoint" />
            <mxPoint x="490" y="490" as="targetPoint" />
            <Array as="points">
              <mxPoint x="750" y="380" />
            </Array>
          </mxGeometry>
        </mxCell>
        <mxCell id="W7deLKcDwb9GxQglXqNE-56" value="N" style="resizable=0;html=1;align=right;verticalAlign=bottom;" connectable="0" vertex="1" parent="W7deLKcDwb9GxQglXqNE-55">
          <mxGeometry x="1" relative="1" as="geometry">
            <mxPoint x="-10" as="offset" />
          </mxGeometry>
        </mxCell>
        <mxCell id="W7deLKcDwb9GxQglXqNE-57" value="" style="endArrow=none;html=1;rounded=0;shadow=0;strokeColor=#000000;entryX=0.5;entryY=1;entryDx=0;entryDy=0;exitX=0;exitY=0.5;exitDx=0;exitDy=0;" edge="1" parent="1" source="nIdmVU4Ml0ts0ksLowSz-1" target="W7deLKcDwb9GxQglXqNE-52">
          <mxGeometry relative="1" as="geometry">
            <mxPoint x="330" y="490" as="sourcePoint" />
            <mxPoint x="490" y="490" as="targetPoint" />
            <Array as="points">
              <mxPoint x="750" y="690" />
            </Array>
          </mxGeometry>
        </mxCell>
        <mxCell id="W7deLKcDwb9GxQglXqNE-58" value="1" style="resizable=0;html=1;align=right;verticalAlign=bottom;" connectable="0" vertex="1" parent="W7deLKcDwb9GxQglXqNE-57">
          <mxGeometry x="1" relative="1" as="geometry">
            <mxPoint x="-10" y="20" as="offset" />
          </mxGeometry>
        </mxCell>
      </root>
    </mxGraphModel>
  </diagram>
</mxfile>
